<svg width="75" height="70" viewBox="0 0 75 70" fill="none" xmlns="http://www.w3.org/2000/svg">
<path d="M6.45337 63.7226V6.45337V24.169V22.0296V63.7226ZM18.7253 38.156H34.1676C35.0368 38.156 35.7657 37.8618 36.354 37.2734C36.9417 36.685 37.2356 35.9562 37.2356 35.0869C37.2356 34.217 36.9417 33.4885 36.354 32.9015C35.7657 32.3138 35.0368 32.02 34.1676 32.02H18.7253C17.8561 32.02 17.1276 32.3142 16.5399 32.9025C15.9515 33.4909 15.6573 34.2197 15.6573 35.089C15.6573 35.9589 15.9515 36.6874 16.5399 37.2744C17.1276 37.8621 17.8561 38.156 18.7253 38.156ZM18.7253 54.5186H34.1676C35.0368 54.5186 35.7657 54.2244 36.354 53.636C36.9417 53.0477 37.2356 52.3188 37.2356 51.4496C37.2356 50.5796 36.9417 49.8512 36.354 49.2641C35.7657 48.6764 35.0368 48.3826 34.1676 48.3826H18.7253C17.8561 48.3826 17.1276 48.6768 16.5399 49.2652C15.9515 49.8535 15.6573 50.5824 15.6573 51.4516C15.6573 52.3216 15.9515 53.05 16.5399 53.6371C17.1276 54.2247 17.8561 54.5186 18.7253 54.5186ZM18.7253 21.7933H51.4506C52.3199 21.7933 53.0483 21.4991 53.636 20.9108C54.2244 20.3224 54.5186 19.5936 54.5186 18.7243C54.5186 17.8544 54.2244 17.1259 53.636 16.5389C53.0483 15.9512 52.3199 15.6573 51.4506 15.6573H18.7253C17.8561 15.6573 17.1276 15.9515 16.5399 16.5399C15.9515 17.1283 15.6573 17.8571 15.6573 18.7264C15.6573 19.5963 15.9515 20.3248 16.5399 20.9118C17.1276 21.4995 17.8561 21.7933 18.7253 21.7933ZM7.71227 69.8586C5.6458 69.8586 3.89671 69.1427 2.46498 67.711C1.03325 66.2792 0.317383 64.5301 0.317383 62.4637V7.71227C0.317383 5.6458 1.03325 3.89671 2.46498 2.46498C3.89671 1.03325 5.6458 0.317383 7.71227 0.317383H62.4637C64.5301 0.317383 66.2792 1.03325 67.711 2.46498C69.1427 3.89671 69.8586 5.6458 69.8586 7.71227V23.9491C69.8586 24.8184 69.5644 25.5469 68.976 26.1345C68.3876 26.7229 67.6588 27.0171 66.7896 27.0171C65.9196 27.0171 65.1911 26.7229 64.6041 26.1345C64.0164 25.5469 63.7226 24.8184 63.7226 23.9491V7.71227C63.7226 7.39729 63.5913 7.10889 63.3289 6.84709C63.0671 6.58461 62.7787 6.45337 62.4637 6.45337H7.71227C7.39729 6.45337 7.1089 6.58461 6.8471 6.84709C6.58461 7.10889 6.45337 7.39729 6.45337 7.71227V62.4637C6.45337 62.7787 6.58461 63.067 6.8471 63.3288C7.1089 63.5913 7.39729 63.7226 7.71227 63.7226H23.8387C24.7079 63.7226 25.4367 64.0168 26.0251 64.6051C26.6128 65.1935 26.9067 65.9223 26.9067 66.7916C26.9067 67.6615 26.6128 68.39 26.0251 68.977C25.4367 69.5647 24.7079 69.8586 23.8387 69.8586H7.71227ZM55.305 49.4053C52.7565 49.4053 50.5854 48.5084 48.7917 46.7146C46.9979 44.9209 46.101 42.7498 46.101 40.2013C46.101 37.6521 46.9979 35.481 48.7917 33.6879C50.5854 31.8942 52.7565 30.9973 55.305 30.9973C57.8542 30.9973 60.0253 31.8942 61.8184 33.6879C63.6121 35.481 64.509 37.6521 64.509 40.2013C64.509 42.7498 63.6121 44.9209 61.8184 46.7146C60.0253 48.5084 57.8542 49.4053 55.305 49.4053ZM55.305 55.5413C57.8849 55.5413 60.448 55.7904 62.9944 56.2888C65.5409 56.7872 68.0283 57.5344 70.4568 58.5305C71.8238 59.0637 72.8785 59.9377 73.6209 61.1526C74.3641 62.3675 74.7356 63.7014 74.7356 65.1543V66.1606C74.7356 67.2085 74.3815 68.0866 73.6731 68.795C72.9641 69.504 72.0859 69.8586 71.0387 69.8586H39.5724C38.5245 69.8586 37.6463 69.504 36.938 68.795C36.2289 68.0866 35.8744 67.2085 35.8744 66.1606V65.1543C35.8744 63.7014 36.246 62.3675 36.9891 61.1526C37.7322 59.9377 38.7873 59.0637 40.1543 58.5305C42.5336 57.5344 44.9955 56.7872 47.5399 56.2888C50.0843 55.7904 52.6727 55.5413 55.305 55.5413Z" fill="#001740"/>
</svg>
