<svg width="78" height="78" viewBox="0 0 78 78" fill="none" xmlns="http://www.w3.org/2000/svg">
<path d="M35.5 22.8868C41.4441 22.8868 47.4811 22.0302 53.6108 20.3169C59.7399 18.6037 63.2884 16.7711 64.2564 14.8193C63.3145 12.8256 59.82 10.9614 53.7727 9.22684C47.7255 7.49228 41.6346 6.625 35.5 6.625C29.4026 6.625 23.3395 7.48162 17.3108 9.19487C11.2814 10.9088 7.73256 12.7836 6.66419 14.8193C7.74838 16.8131 11.321 18.6563 17.382 20.3489C23.4423 22.0408 29.4816 22.8868 35.5 22.8868ZM0.4375 55.728V14.875C0.4375 12.95 1.39072 11.1161 3.29716 9.37328C5.20359 7.63116 7.76866 6.09631 10.9923 4.76875C14.2153 3.44119 17.9464 2.38759 22.1855 1.60797C26.424 0.827654 30.8621 0.4375 35.5 0.4375C40.1118 0.4375 44.5368 0.827654 48.7753 1.60797C53.0137 2.38759 56.7448 3.44772 59.9685 4.78834C63.1915 6.12897 65.7631 7.66415 67.6833 9.3939C69.6028 11.123 70.5625 12.95 70.5625 14.875C70.5625 16.7209 69.5763 18.495 67.6039 20.1973C65.6307 21.9002 63.0127 23.4155 59.7498 24.743C56.487 26.0706 52.7494 27.1242 48.5371 27.9038C44.3247 28.6841 39.9791 29.0743 35.5 29.0743C29.7092 29.0743 24.3058 28.5257 19.2898 27.4284C14.2738 26.3312 10.0522 24.7592 6.625 22.7125V36.1425C9.17425 38.1678 12.3539 39.7584 16.1641 40.9141C19.9742 42.0698 24.0239 42.8353 28.3132 43.2107C29.1912 43.2952 29.9051 43.6441 30.4551 44.2574C31.0051 44.8713 31.2801 45.6169 31.2801 46.4942C31.2801 47.3302 30.9945 48.0441 30.4232 48.6361C29.8518 49.2287 29.1485 49.4827 28.3132 49.3982C24.6853 49.1335 20.8813 48.5371 16.9014 47.6089C12.9222 46.6808 9.49669 45.3629 6.625 43.6551V56.125C7.71469 58.0239 10.421 59.6845 14.744 61.107C19.0677 62.5294 24.7884 63.4919 31.9061 63.9945C32.784 64.079 33.498 64.4493 34.048 65.1051C34.598 65.7603 34.873 66.5269 34.873 67.4048C34.873 68.2828 34.5877 69.0287 34.0171 69.6426C33.4458 70.2559 32.7211 70.5412 31.8432 70.4986C27.5119 70.414 23.4437 69.9778 19.6383 69.1899C15.8337 68.402 12.5062 67.3484 9.65584 66.0291C6.80478 64.7098 4.55563 63.1736 2.90838 61.4205C1.26113 59.6673 0.4375 57.7698 0.4375 55.728ZM54.2213 70.5625C49.6996 70.5625 45.8455 68.9692 42.6589 65.7827C39.4731 62.5968 37.8801 58.743 37.8801 54.2213C37.8801 49.6996 39.4731 45.8455 42.6589 42.6589C45.8455 39.4731 49.6996 37.8801 54.2213 37.8801C58.743 37.8801 62.5968 39.4731 65.7827 42.6589C68.9692 45.8455 70.5625 49.6996 70.5625 54.2213C70.5625 55.8768 70.3246 57.4832 69.8489 59.0403C69.3724 60.5975 68.6743 62.053 67.7544 63.4067L76.6386 72.2919C77.2099 72.8632 77.5021 73.581 77.5152 74.4452C77.5282 75.31 77.2361 76.0412 76.6386 76.6386C76.0412 77.2361 75.3169 77.5282 74.4658 77.5152C73.614 77.5021 72.8893 77.2099 72.2919 76.6386L63.4067 67.7936C62.0268 68.6344 60.5649 69.3061 59.0208 69.8087C57.4766 70.3112 55.8768 70.5625 54.2213 70.5625ZM54.2213 64.375C57.0559 64.375 59.4566 63.3912 61.4236 61.4236C63.3912 59.4566 64.375 57.0559 64.375 54.2213C64.375 51.3868 63.3912 48.9857 61.4236 47.018C59.4566 45.0511 57.0559 44.0676 54.2213 44.0676C51.3867 44.0676 48.9857 45.0511 47.018 47.018C45.0511 48.9857 44.0676 51.3868 44.0676 54.2213C44.0676 57.0559 45.0511 59.4566 47.018 61.4236C48.9857 63.3912 51.3867 64.375 54.2213 64.375Z" fill="#041C3B"/>
</svg>
