<svg width="60" height="81" viewBox="0 0 60 81" fill="none" xmlns="http://www.w3.org/2000/svg">
<path d="M0.325195 76.9716V61.7792C0.325195 60.7033 0.682695 59.8099 1.39769 59.099C2.11201 58.3875 2.99751 58.0317 4.0542 58.0317H6.90973C7.96573 58.0317 8.85122 58.3875 9.56623 59.099C10.2805 59.8099 10.6377 60.7033 10.6377 61.7792V76.9716C10.6377 78.0476 10.2805 78.941 9.56623 79.6518C8.85122 80.3634 7.96573 80.7192 6.90973 80.7192H4.0542C2.99751 80.7192 2.11201 80.3634 1.39769 79.6518C0.682695 78.941 0.325195 78.0476 0.325195 76.9716ZM20.7924 77.6254V30.0848C17.3494 31.1264 14.816 32.8967 13.1921 35.3957C11.5689 37.8941 10.527 40.8968 10.0664 44.4037C9.96188 45.1627 9.59441 45.7729 8.96398 46.2342C8.33354 46.6955 7.62473 46.9261 6.83754 46.9261C5.99741 46.9261 5.27726 46.6484 4.67707 46.0929C4.0762 45.5374 3.83145 44.863 3.94282 44.0696C4.77813 36.7243 7.59963 31.0012 12.4073 26.9003C17.2143 22.7987 23.5789 20.7479 31.5009 20.7479C37.9792 20.7479 43.0193 19.541 46.6211 17.1271C50.2222 14.7126 52.3456 10.589 52.9911 4.75627C53.1018 3.87833 53.4538 3.15095 54.0471 2.57414C54.6404 1.99802 55.3754 1.70995 56.2519 1.70995C57.1292 1.70995 57.8638 2.00867 58.4557 2.60611C59.0484 3.20355 59.289 3.92027 59.1776 4.75627C58.6544 9.93865 57.0244 14.3294 54.2874 17.9284C51.5505 21.5268 47.5245 23.9685 42.2094 25.2534V77.6254C42.2094 78.502 41.9131 79.2366 41.3205 79.8292C40.7272 80.4225 39.9919 80.7192 39.1146 80.7192C38.2381 80.7192 37.5035 80.4225 36.9109 79.8292C36.3189 79.2366 36.0229 78.502 36.0229 77.6254V56.2074H26.9789V77.6254C26.9789 78.502 26.6822 79.2366 26.0889 79.8292C25.4963 80.4225 24.7614 80.7192 23.8841 80.7192C23.0075 80.7192 22.2729 80.4225 21.6803 79.8292C21.0884 79.2366 20.7924 78.502 20.7924 77.6254ZM31.5009 15.274C29.391 15.274 27.5942 14.5325 26.1106 13.0496C24.6269 11.566 23.8851 9.76917 23.8851 7.65924C23.8851 5.5493 24.6269 3.75252 26.1106 2.2689C27.5942 0.785271 29.391 0.043457 31.5009 0.043457C33.6109 0.043457 35.4076 0.785271 36.8913 2.2689C38.3749 3.75252 39.1167 5.5493 39.1167 7.65924C39.1167 9.76917 38.3749 11.566 36.8913 13.0496C35.4076 14.5325 33.6109 15.274 31.5009 15.274Z" fill="#041C3B"/>
</svg>
