<svg width="86" height="76" viewBox="0 0 86 76" fill="none" xmlns="http://www.w3.org/2000/svg">
<path d="M0.541016 60.3343V51.1644C0.541016 49.0387 1.08964 47.1415 2.18689 45.473C3.28414 43.8044 4.74955 42.5064 6.58311 41.5789C10.5032 39.6615 14.445 38.183 18.4085 37.1435C22.3726 36.1047 26.7289 35.5853 31.4775 35.5853C34.5183 35.5853 37.4058 35.806 40.14 36.2474C42.8742 36.6888 45.5554 37.346 48.1837 38.2191C47.325 38.9451 46.542 39.7361 45.8346 40.592C45.1271 41.448 44.4877 42.3438 43.9164 43.2795C41.9598 42.7563 39.9568 42.3744 37.9073 42.1338C35.8579 41.8931 33.7146 41.7728 31.4775 41.7728C27.3635 41.7728 23.5083 42.2235 19.912 43.1248C16.3157 44.0268 12.8201 45.353 9.42523 47.1034C8.48886 47.6059 7.80514 48.193 7.37408 48.8647C6.94302 49.5364 6.72748 50.303 6.72748 51.1644V54.1478H39.8389C39.7282 55.1701 39.6728 56.1925 39.6728 57.2148C39.6728 58.2371 39.7151 59.2769 39.7997 60.3343H0.541016ZM31.4775 28.9214C27.5072 28.9214 24.1085 27.5079 21.2815 24.6809C18.4545 21.8532 17.041 18.4542 17.041 14.4839C17.041 10.5136 18.4545 7.11492 21.2815 4.28792C24.1085 1.46023 27.5072 0.0463867 31.4775 0.0463867C35.4478 0.0463867 38.8468 1.46023 41.6745 4.28792C44.5015 7.11492 45.915 10.5136 45.915 14.4839C45.915 18.4542 44.5015 21.8532 41.6745 24.6809C38.8468 27.5079 35.4478 28.9214 31.4775 28.9214ZM31.4775 22.7339C33.7462 22.7339 35.6884 21.9261 37.3041 20.3104C38.9197 18.6948 39.7275 16.7526 39.7275 14.4839C39.7275 12.2151 38.9197 10.2729 37.3041 8.65732C35.6884 7.0417 33.7462 6.23389 31.4775 6.23389C29.2087 6.23389 27.2666 7.0417 25.6509 8.65732C24.0353 10.2729 23.2275 12.2151 23.2275 14.4839C23.2275 16.7526 24.0353 18.6948 25.6509 20.3104C27.2666 21.9261 29.2087 22.7339 31.4775 22.7339ZM67.0948 14.4839C67.0948 18.4542 65.6813 21.8532 62.8543 24.6809C60.0273 27.5079 56.6286 28.9214 52.6583 28.9214C52.1929 28.9214 51.6006 28.8685 50.8815 28.7626C50.1617 28.6567 49.5694 28.5405 49.1046 28.414C50.7753 26.4519 52.0365 24.2797 52.8883 21.8975C53.7394 19.5154 54.165 17.0417 54.165 14.4767C54.165 11.9116 53.726 9.44692 52.8481 7.08261C51.9701 4.71898 50.7223 2.54304 49.1046 0.554792C49.6966 0.343042 50.2889 0.205542 50.8815 0.142292C51.4734 0.0783547 52.0657 0.0463867 52.6583 0.0463867C56.6286 0.0463867 60.0273 1.46023 62.8543 4.28792C65.6813 7.11492 67.0948 10.5136 67.0948 14.4839ZM66.5286 75.2874C61.3635 75.2874 56.9604 73.4673 53.3194 69.827C49.679 66.1866 47.8589 61.7839 47.8589 56.6187C47.8589 51.3909 49.679 46.9617 53.3194 43.331C56.9604 39.7004 61.3635 37.885 66.5286 37.885C71.7557 37.885 76.1846 39.7004 79.8153 43.331C83.446 46.9617 85.2613 51.3909 85.2613 56.6187C85.2613 61.7839 83.446 66.1866 79.8153 69.827C76.1846 73.4673 71.7557 75.2874 66.5286 75.2874ZM63.8907 66.2846L76.9237 53.1877L74.3538 50.657L63.8907 61.0809L58.6076 55.7978L56.0377 58.4306L63.8907 66.2846Z" fill="#041C3B"/>
</svg>
