<svg width="78" height="61" viewBox="0 0 78 61" fill="none" xmlns="http://www.w3.org/2000/svg">
<path d="M59.53 50.713L50.9386 59.3043C50.3673 59.8749 49.6561 60.1537 48.805 60.1407C47.9538 60.1276 47.2426 59.8354 46.6713 59.2641C46.1 58.6928 45.8143 57.9726 45.8143 57.1036C45.8143 56.2346 46.1 55.5189 46.6713 54.9566L55.2224 46.4054L46.6311 37.8141C46.0605 37.2428 45.7817 36.525 45.7948 35.6608C45.8078 34.796 46.1 34.0779 46.6713 33.5066C47.2426 32.9359 47.9628 32.6506 48.8318 32.6506C49.7008 32.6506 50.4165 32.9359 50.9788 33.5066L59.53 42.0979L68.1213 33.5066C68.6837 32.9359 69.3994 32.6506 70.2684 32.6506C71.1374 32.6506 71.8575 32.9359 72.4288 33.5066C72.9995 34.0779 73.2848 34.798 73.2848 35.667C73.2848 36.536 72.9995 37.2517 72.4288 37.8141L63.8375 46.4054L72.4288 54.9968C72.9995 55.5681 73.2848 56.2793 73.2848 57.1304C73.2848 57.9816 72.9995 58.6928 72.4288 59.2641C71.8575 59.8354 71.1374 60.1211 70.2684 60.1211C69.3994 60.1211 68.6837 59.8354 68.1213 59.2641L59.53 50.713ZM56.8879 16.9828L72.2463 1.62547C72.8596 1.01222 73.5838 0.709373 74.4192 0.716935C75.2552 0.725185 75.9798 1.04934 76.593 1.6894C77.1643 2.31228 77.45 3.03897 77.45 3.86947C77.45 4.70065 77.1643 5.42287 76.593 6.03612L59.6011 23.0909C58.8559 23.8369 57.9858 24.2098 56.991 24.2098C55.9969 24.2098 55.1272 23.8369 54.382 23.0909L45.9494 14.6584C45.3781 14.0878 45.099 13.37 45.1121 12.5052C45.1258 11.6403 45.418 10.9225 45.9886 10.3519C46.5599 9.78059 47.2801 9.49494 48.1491 9.49494C49.0181 9.49494 49.7338 9.78059 50.2962 10.3519L56.8879 16.9828ZM3.40625 43.1137H32.2812C33.1578 43.1137 33.8927 43.4103 34.4861 44.0037C35.0787 44.597 35.375 45.3319 35.375 46.2085C35.375 47.0857 35.0787 47.8203 34.4861 48.4122C33.8927 49.0049 33.1578 49.3012 32.2812 49.3012H3.40625C2.52969 49.3012 1.79509 49.0045 1.20247 48.4112C0.609156 47.8179 0.3125 47.0826 0.3125 46.2054C0.3125 45.3288 0.609156 44.5942 1.20247 44.0016C1.79509 43.4097 2.52969 43.1137 3.40625 43.1137ZM3.40625 11.6997H32.2812C33.1578 11.6997 33.8927 11.9964 34.4861 12.5897C35.0787 13.183 35.375 13.9183 35.375 14.7956C35.375 15.6721 35.0787 16.4067 34.4861 16.9993C33.8927 17.5913 33.1578 17.8872 32.2812 17.8872H3.40625C2.52969 17.8872 1.79509 17.5906 1.20247 16.9973C0.609156 16.404 0.3125 15.669 0.3125 14.7925C0.3125 13.9152 0.609156 13.1806 1.20247 12.5887C1.79509 11.9961 2.52969 11.6997 3.40625 11.6997Z" fill="#041C3B"/>
</svg>
