<svg width="74" height="78" viewBox="0 0 74 78" fill="none" xmlns="http://www.w3.org/2000/svg">
<path d="M40.6563 74.0152V67.8122C40.6563 66.935 40.9103 66.1516 41.4184 65.462C41.9257 64.7731 42.6235 64.3349 43.5118 64.1472L56.8386 61.1246L43.5118 58.102C42.6235 57.9143 41.9257 57.476 41.4184 56.7871C40.9103 56.0976 40.6563 55.3142 40.6563 54.4369V48.234C40.6563 46.7985 41.2434 45.7215 42.4176 45.003C43.5912 44.2853 44.7995 44.2437 46.0425 44.8783L71.8629 57.7689C73.2434 58.4536 73.9337 59.5743 73.9337 61.1308C73.9337 62.6866 73.2434 63.8031 71.8629 64.4803L46.0425 77.3709C44.7995 78.0055 43.5912 77.9639 42.4176 77.2461C41.2434 76.5277 40.6563 75.4507 40.6563 74.0152ZM6.625 75.5621C4.92344 75.5621 3.46697 74.956 2.25559 73.744C1.04353 72.5326 0.4375 71.0761 0.4375 69.3746V53.3819C3.26175 53.0382 5.68656 51.8643 7.71194 49.8602C9.73731 47.8555 10.75 45.4228 10.75 42.5621C10.75 39.7014 9.73731 37.2687 7.71194 35.2639C5.68656 33.2599 3.26175 32.086 0.4375 31.7422V15.7496C0.4375 14.048 1.04353 12.5915 2.25559 11.3802C3.46697 10.1681 4.92344 9.56207 6.625 9.56207H23.125C23.4956 6.93926 24.6444 4.77639 26.5714 3.07345C28.4992 1.37051 30.7879 0.519043 33.4375 0.519043C36.0871 0.519043 38.3758 1.37051 40.3036 3.07345C42.2306 4.77639 43.3794 6.93926 43.75 9.56207H60.25C61.9516 9.56207 63.408 10.1681 64.6194 11.3802C65.8315 12.5915 66.4375 14.048 66.4375 15.7496V45.8146L60.25 42.7209V15.7496H37.8007V10.6727C37.6419 9.40911 37.1314 8.43217 36.2693 7.74192C35.4072 7.05167 34.4633 6.70654 33.4375 6.70654C32.4118 6.70654 31.4678 7.05167 30.6057 7.74192C29.7436 8.43217 29.2331 9.40911 29.0743 10.6727V15.7496H6.625V27.0459C9.75588 28.3418 12.2573 30.4002 14.1294 33.221C16.0015 36.0425 16.9375 39.1603 16.9375 42.5745C16.9375 45.9295 16.0015 49.0177 14.1294 51.8392C12.2573 54.6607 9.75588 56.7404 6.625 58.0783V69.3746H17.8099C18.8996 66.5716 20.8143 64.2039 23.554 62.2713C26.293 60.3381 29.3761 59.324 32.8033 59.2291V65.4166C30.1062 65.6222 27.8333 66.5936 25.9847 68.331C24.1367 70.0683 23.0143 72.4786 22.6176 75.5621H6.625Z" fill="#041C3B"/>
</svg>
