<svg id="Layer_2" data-name="Layer 2" xmlns="http://www.w3.org/2000/svg" viewBox="0 0 689.929 517.319"><path d="M681.408,456.845l-35.824-17.8c-.029.058-.061.123-.092.195,2.166-4.943,12.006-43.963-7.7-71.3-18.039-25.023-58.1-35.45-115.858-30.148-12.265,1.125-24.536,1.664-36.737,1.664-99.144,0-194.457-35.556-258.988-80.965a201.123,201.123,0,0,1-25.294,12.351c-30.924,12.484-62.332,15.975-90.824,10.1-32.816-6.772-60.677-25.917-80.575-55.364C3.91,187.683-5.114,149.048,2.693,110.743,16.419,43.4,77.868,2.948,80.477,1.259l21.736,33.579L91.345,18.048l10.912,16.761c-.5.328-50.213,33.4-60.42,84.173-5.489,27.3,1.515,55.631,20.819,84.2,14.132,20.916,32.809,33.9,55.514,38.583,20.748,4.282,44.179,1.511,67.764-8.011q3.165-1.278,6.286-2.7-5.482-5.136-10.408-10.332c-31.771-33.523-46.1-68.143-41.423-100.116a85.466,85.466,0,0,1,33.079-55.809,97.183,97.183,0,0,1,57.22-19.649c19.091-.262,36.674,5.124,50.813,15.6,15.905,11.78,26.278,29.24,30,50.491,5.516,31.524-4.065,65.669-26.979,96.145a186.173,186.173,0,0,1-23.907,26.084,409.782,409.782,0,0,0,79.913,39.367c59.131,21.688,120.6,30.379,177.749,25.134,39.03-3.583,72.083-.8,98.241,8.27,23.933,8.3,42.455,21.828,55.052,40.216C700.175,388.206,688.791,441.982,681.408,456.845ZM231.971,85.134c-.248,0-.487,0-.72,0-29.771.418-48.332,21.066-51.282,41.247-2.8,19.128,8.169,42.857,30.875,66.814a222.726,222.726,0,0,0,16.735,15.844,148.783,148.783,0,0,0,24.969-25.707c16.2-21.54,23.138-44.7,19.548-65.211C266.926,88.58,242.872,85.134,231.971,85.134Z" fill="#ccf0f1"/><path d="M36.683,286.459l-8.166,7.28a1.724,1.724,0,0,0,.655,2.938l11.019,3.281a1.724,1.724,0,0,0,2.156-2.1L39.493,287.3A1.723,1.723,0,0,0,36.683,286.459Z" fill="#e3095a"/><path d="M291.878,500.5a.748.748,0,0,0-.91-.543l-5.533,1.4-1.4-5.533a.75.75,0,0,0-1.455.367l1.4,5.533-5.533,1.4a.751.751,0,0,0,.184,1.478.725.725,0,0,0,.183-.024l5.533-1.4,1.4,5.533a.751.751,0,0,0,.727.566.725.725,0,0,0,.184-.023.748.748,0,0,0,.543-.91l-1.4-5.533,5.533-1.4A.751.751,0,0,0,291.878,500.5Z" fill="#ffc303"/><path d="M639.27,218.763a12.942,12.942,0,0,1-9.4-4.086,9.758,9.758,0,0,1-1.484-2.06,8.464,8.464,0,0,1-5.188-2.569,6.541,6.541,0,0,1-1.461-6.516,5.409,5.409,0,0,1,5.655-3.55.75.75,0,1,1-.222,1.483,3.925,3.925,0,0,0-4.021,2.573,5.1,5.1,0,0,0,1.155,5,6.746,6.746,0,0,0,3.46,1.948,6.011,6.011,0,0,1-.124-.683,4.88,4.88,0,0,1,1.964-4.693,3.889,3.889,0,0,1,2.92-.522,3.288,3.288,0,0,1,2.131,1.438,3.881,3.881,0,0,1-.9,4.783,5.9,5.9,0,0,1-3.578,1.369,9.1,9.1,0,0,0,.793.985,11.379,11.379,0,0,0,9.61,3.523.75.75,0,1,1,.183,1.489A12.175,12.175,0,0,1,639.27,218.763Zm-9.881-7.571a4.84,4.84,0,0,0,3.365-1.006,2.385,2.385,0,0,0,.625-2.866,1.8,1.8,0,0,0-1.177-.769,2.36,2.36,0,0,0-1.775.307,3.421,3.421,0,0,0-1.3,3.258A4.918,4.918,0,0,0,629.389,211.192Z" fill="#ffc303"/></svg>