<svg id="Layer_2" data-name="Layer 2" xmlns="http://www.w3.org/2000/svg" viewBox="0 0 667.989 586.171"><rect x="654.314" y="52.805" width="12.635" height="12.635" rx="1.723" transform="translate(7.444 174.34) rotate(-15.118)" fill="#0fb4ba"/><path d="M8.743,378.789l-8.166,7.28a1.724,1.724,0,0,0,.655,2.938l11.019,3.281a1.723,1.723,0,0,0,2.156-2.1l-2.853-10.561A1.724,1.724,0,0,0,8.743,378.789Z" fill="#ffc303"/><path d="M162.025,552.705A109.544,109.544,0,0,1,134.579,455c8.854-40.7,41.825-76.5,90.462-98.21,23.653-10.559,48.346-17.214,72.225-23.651,15.236-4.106,29.627-7.985,43.817-12.808q2.188-.744,4.326-1.51a223.225,223.225,0,0,1,1.444-23.551c-37.254-8.857-79.108-22.717-116.31-47.581A223.135,223.135,0,0,1,170.9,189.38c-17.075-24.87-27.207-51.4-30.115-78.869A158.018,158.018,0,0,1,171.35,0l31.96,24.055A117.6,117.6,0,0,0,180.559,106.3c4.271,40.344,31.266,80.767,72.211,108.133,31.88,21.308,68.745,33.6,102.1,41.621.051-.172.1-.343.153-.515,4.4-14.709,12.329-35.885,30.368-49.9a58.94,58.94,0,0,1,33.379-12.222c13.886-.59,26.626,4,35.873,12.938,9.984,9.642,15.02,22.917,14.563,38.39a79.333,79.333,0,0,1-7.6,30.589c25.255,4.174,50.9,8.884,76.089,15.552,24.893,6.59,56.7,16.984,81.923,39.043,28.206,24.668,41.858,59.9,35.629,91.945-4.742,24.391-20.917,47.109-45.546,63.966-41.245,28.23-97.1,34.373-145.763,16.032a176.777,176.777,0,0,1-62.3-40.734,191.356,191.356,0,0,1-40.994-61.693,201.148,201.148,0,0,1-11.643-39.592c-13.8,4.492-27.767,8.256-41.318,11.908-23.42,6.313-45.541,12.275-66.33,21.555C188.952,416.7,176.56,450.19,173.666,463.5c-4.677,21.5,2.115,45.675,17.3,61.592s39.018,23.839,60.711,20.179l6.656,39.442A109.543,109.543,0,0,1,162.025,552.705ZM387.032,344.663a162.859,162.859,0,0,0,10.6,39.578c15.193,36.97,45.25,66.951,80.406,80.2,36.638,13.807,78.431,9.358,109.065-11.61,9.207-6.3,25.2-19.695,28.873-38.591,3.467-17.836-5.441-39.112-22.7-54.2-18.977-16.6-45.148-25.009-65.828-30.484-29.982-7.937-61.582-13.073-92.249-17.97Q415.782,330.555,387.032,344.663Zm22.9-107.438c-6.4,4.97-11.426,13.584-15.722,26.986,8.366,1.518,16.823,2.947,25.241,4.325a84.969,84.969,0,0,0,4.806-7.91c5.444-10.188,6.609-21.627,2.6-25.5-1.974-1.907-5.92-2.241-9.909-1.242A19.166,19.166,0,0,0,409.927,237.225Z" fill="#ccf0f1"/></svg>